<svg fill='#fff' xmlns="http://www.w3.org/2000/svg" viewBox="0 0 875.58 338.46">
    <g>
    <path class="cls-1" d="M0,171.55C0,69.55,70.94,4.64,160.42,4.64c89.48,0,160.42,64.91,160.42,166.91,0,102-70.94,166.91-160.42,166.91C70.94,338.46,0,273.55,0,171.55ZM257.32,171.55c0-65.37-39.41-108.03-96.9-108.03-57.96,0-96.9,42.66-96.9,108.03,0,65.37,38.95,108.03,96.9,108.03,57.49,0,96.9-42.65,96.9-108.03Z"></path>
    <path class="cls-1" d="M336.49,0h58.42s0,333.83,0,333.83h-58.42S336.49,0,336.49,0Z"></path>
    <path class="cls-1" d="M415.77,0h58.42s0,333.83,0,333.83h-58.42S415.77,0,415.77,0Z"></path>
    <path class="cls-1" d="M495.05,95.05h58.42s0,238.78,0,238.78h-58.42s0-238.78,0-238.78Z"></path>
    <path class="cls-1" d="M569.12,214.2c0-81.6,57.49-123.79,117.3-123.79,59.81,0,115.91,42.19,115.91,123.33v23.65s-173.87,0-173.87,0c7.42,32.46,30.6,50.07,60.27,50.07,20.86,0,36.63-7.42,46.36-23.18h64.45c-19.01,50.07-63.06,74.18-110.81,74.18-60.27,0-119.62-42.19-119.62-124.26ZM741.13,186.39c-6.49-28.75-27.35-44.97-54.71-44.97-27.35,0-48.68,15.76-57.03,44.97h111.74Z"></path>
    <path class="cls-1" d="M490.41,47.52c0-19.94,14.84-33.84,33.85-33.84,19.47,0,33.84,13.91,33.84,33.84,0,19.94-14.37,33.85-33.84,33.85-19.01,0-33.85-13.91-33.85-33.85Z"></path>
    </g>
    <g>
    <path class="cls-1" d="M829.04,141.19v-36.26h13.6c2.79,0,5.13.48,7.02,1.45,1.89.97,3.33,2.32,4.3,4.06.97,1.74,1.46,3.77,1.46,6.08s-.49,4.34-1.48,6.05c-.99,1.71-2.43,3.02-4.35,3.95-1.91.93-4.26,1.39-7.05,1.39h-9.69v-5.45h8.8c1.63,0,2.96-.23,4-.68,1.04-.45,1.81-1.12,2.31-2,.5-.88.75-1.96.75-3.25s-.25-2.39-.76-3.3c-.51-.91-1.28-1.61-2.32-2.09-1.04-.48-2.38-.72-4.02-.72h-6.02v30.78h-6.57ZM847.78,124.76l8.98,16.43h-7.33l-8.82-16.43h7.17Z"></path>
    <path class="cls-1" d="M841.74,158.1c-18.66,0-33.85-15.18-33.85-33.85s15.18-33.85,33.85-33.85,33.85,15.18,33.85,33.85-15.18,33.85-33.85,33.85ZM841.74,96.96c-15.05,0-27.29,12.24-27.29,27.29s12.24,27.29,27.29,27.29,27.29-12.24,27.29-27.29-12.24-27.29-27.29-27.29Z"></path>
    </g>
</svg>