<svg xmlns="http://www.w3.org/2000/svg" xmlns:xlink="http://www.w3.org/1999/xlink" version="1.1" id="Calque_1" x="0px" y="0px" viewBox="0 0 946 747.1" style="enable-background:new 0 0 946 747.1;" xml:space="preserve"><script xmlns=""/>
<path d="M164.2,437.5c-1.6-5.4-2.7-11-3.2-16.7l-23.7,0c-5.7,0-10.9,3.6-12.9,9l-7.5,19.9c0,0,0,0.1,0,0.1c-0.3,0.8-0.5,1.6-0.6,2.5  c9.4-4.8,19.4-8.4,29.9-10.7L164.2,437.5z M188.5,358.6l14-17.6c2-2.6,3.1-5.9,3.1-9.2v-5.4h-1.8c-0.8,0-1.5,0.7-1.5,1.5v1.7  c0,1.4-1.1,2.5-2.5,2.5h-0.6c-0.8,0-1.5,0.7-1.5,1.5v2.1c0,1.4-1.1,2.5-2.5,2.5c-0.8,0-1.5,0.7-1.5,1.5v1.6c0,1.4-1.1,2.5-2.5,2.5  h-0.2c-0.8,0-1.5,0.7-1.5,1.5v1.6c0,1.4-1.1,2.5-2.5,2.5h-0.3c-0.8,0-1.5,0.7-1.5,1.5v1.4c0,1.4-1.1,2.5-2.5,2.5  c-0.9,0-1.5,0.7-1.5,1.5v1.3c0,1.4-1.1,2.5-2.5,2.5h-0.1c-0.8,0-1.5,0.7-1.5,1.5v3.2C181.7,364.3,185.8,362.2,188.5,358.6z   M279.3,457.7c-1.6,0-2.9,1.3-2.9,2.9c0,1.6,1.3,2.9,2.9,2.9s2.9-1.3,2.9-2.9C282.1,459,280.8,457.7,279.3,457.7z M279.8,461.8  c0,0.3-0.2,0.5-0.5,0.5s-0.5-0.2-0.5-0.5v-2.4c0-0.3,0.2-0.5,0.5-0.5s0.5,0.2,0.5,0.5V461.8z M276.3,370.4c-2.3,0-4.3,1.5-5,3.7  l-4.3,13.7c-6.3,20.3-6.1,41.7,0.6,61.9l4.3,13c1,3,3.8,5.1,7,5.1c0,0,0.1,0,0.1,0l21-0.3c-6.6-32.1-6.6-64.7,0.1-96.9H276.3z   M279.3,464.4c-2.1,0-3.9-1.7-3.9-3.9s1.7-3.9,3.9-3.9c2.1,0,3.9,1.7,3.9,3.9S281.4,464.4,279.3,464.4z M279.3,382.1  c-2.1,0-3.9-1.7-3.9-3.9c0-2.1,1.7-3.9,3.9-3.9c2.1,0,3.9,1.7,3.9,3.9C283.1,380.4,281.4,382.1,279.3,382.1z M255.8,225.2l20.8-68  c0-0.1,0.1-0.1,0.1-0.2c-8.3-2.4-14.8-0.5-19.9,5.6c-4.6,5.5-7.7,13.7-10.9,24.2C240.2,205.6,237.5,219.4,255.8,225.2z M308.8,339  l22.4-64.1c0-0.1,0.1-0.1,0.1-0.2c1.1-3.5-0.4-7.4-3.7-9.1l-53.2-27.9c3.1,6.7,15.4,35.5,6.2,50.4l-44.3,56.6  c-31.1,39.7-33.8,95-6.6,137.5c9.2,14.4,19.2,28.5,29.8,41.9c1.6,2,3.3,4.2,5.1,6.3l19.8-16.7c3.9-3.3,7.3-7.2,9.9-11.6  c4.5-7.4,6.9-16,6.9-24.7c0-3-0.3-6.1-0.9-9.2l-21.3,0.3c0,0-0.1,0-0.1,0c-3.6,0-6.8-2.3-8-5.7l-4.3-13c-6.8-20.4-7-42-0.6-62.5  l4.3-13.7c0.6-1.8,1.8-3.1,3.4-3.8c0.8-0.4,1.7-0.6,2.6-0.6h24.1C302.5,359.1,305.4,348.9,308.8,339z M279.3,375.4  c-1.6,0-2.9,1.3-2.9,2.9c0,1.6,1.3,2.9,2.9,2.9s2.9-1.3,2.9-2.9C282.1,376.7,280.8,375.4,279.3,375.4z M279.8,379.4  c0,0.3-0.2,0.5-0.5,0.5s-0.5-0.2-0.5-0.5V377c0-0.3,0.2-0.5,0.5-0.5s0.5,0.2,0.5,0.5V379.4z M305.9,250.2l-14-7.4l-1.2,2.4l16.8,8.8  l1.3-2.4C307.8,251.1,306.9,250.7,305.9,250.2z M631.5,360h-10.3c-0.7,0-1.5,0-2.2,0v94.6h12.5V360z M73,509.1h33  c29.3,0,58.5,7.3,84.4,21.1l29.6,15.8c7.2,3.8,14.9,6.5,22.9,8l-66.3-91.4c-5.4-7.5-9.5-15.6-12.2-24.2l-18.1,4  c-32.7,7.2-61.6,27.7-79.2,56.3c-1.3,2.1-1.4,4.7-0.1,6.9C68.3,507.8,70.5,509.1,73,509.1z M857,282.5c-1.5,3.5-1.1,7.5,1,10.7  c2.1,3.2,5.7,5.1,9.5,5.1H946v-35.2l-70-25.8L857,282.5z M427.4,386.4c12.7,6.9,29,10.5,48.7,10.5c45.2,0,64.3-10.5,82.7-20.7  c16.1-8.8,31.2-17.2,62.3-17.2h101.7c3.9,0,7.6-0.6,11.1-1.7c15-4.8,25-18.6,25.1-34.3c0-0.1,0-0.1,0-0.2c0-2.7-1-5.2-2.9-7  c-1.9-1.9-4.4-2.9-7-2.9H425.1c-7.1,0-13.8,2.8-18.8,7.8c-5,5.1-7.8,11.8-7.7,18.9v1.3C398.6,341.2,398.3,370.4,427.4,386.4z   M257.2,229.9c0.8,1.1,2.1,1.7,3.4,1.7h21.5c2.8,0,5.1,2.3,5.1,5.1c0,1.5,0.9,3,2.2,3.7l16.9,8.9c8.6,4.5,18.5,5.5,27.8,2.6  c9.3-2.9,16.9-9.2,21.5-17.8c0.8-1.4,1.4-2.9,2-4.4H351c-4.4,9.3-13.9,15.8-24.9,15.8c-15.2,0-27.6-12.4-27.6-27.6  s12.4-27.6,27.6-27.6c11,0,20.5,6.5,24.9,15.8h7.1c-2.8-8.8-8.9-16.6-17.7-21.2l-13.4-7.1c-3.3-1.8-6.1-4.4-7.9-7.6c0,0,0,0,0-0.1  l-7.6-13.2c-0.7-1.3-2.1-2.1-3.6-2.1l-26.2-0.1c-1.9,0-3.6,1.2-4.1,3l-20.9,68.5C256.2,227.4,256.4,228.8,257.2,229.9z M919.9,198.5  l26.1,9.8v-70.6c-6.4,10.2-11.7,21.1-15.8,32.5L919.9,198.5z M866.6,299.2c2,20.2,14.5,44.4,39.3,76.2c18,23.1,32.9,66,40.1,89.3  V299.3h-78.5C867.2,299.3,866.9,299.3,866.6,299.2z M810.6,431.8c3.8-5.7,4.2-12.9,1.1-19.1L798.2,386c-1.2-2.3-3.6-3.8-6.2-3.8  h-23.4C787.9,398.7,802,415.3,810.6,431.8z M350.1,217.8c0-4.8,2.9-9,7.1-10.8h-29c0,0-0.1,0-0.1,0c-6,0-10.8,4.9-10.8,10.8  c0,6,4.9,10.8,10.8,10.8h29C353.1,226.8,350.1,222.6,350.1,217.8z M316.4,217.8c0-6.5,5.2-11.7,11.7-11.8c0,0,0.1,0,0.1,0h21.7  c-4.4-8.7-13.4-14.8-23.8-14.8c-14.7,0-26.6,11.9-26.6,26.6s11.9,26.6,26.6,26.6c10.4,0,19.5-6,23.8-14.8h-21.7  C321.7,229.6,316.4,224.3,316.4,217.8z M362,226.2c4.6,0,8.4-3.8,8.4-8.4c0-4.6-3.8-8.4-8.4-8.4c-4.6,0-8.4,3.8-8.4,8.4  C353.6,222.4,357.3,226.2,362,226.2z M351.1,217.8c0,6,4.9,10.8,10.8,10.8s10.8-4.9,10.8-10.8c0-6-4.9-10.8-10.8-10.8  S351.1,211.8,351.1,217.8z M362,208.4c5.2,0,9.4,4.2,9.4,9.4s-4.2,9.4-9.4,9.4c-5.2,0-9.4-4.2-9.4-9.4S356.8,208.4,362,208.4z   M618.9,539.2h12.5v-67.7h-12.5V539.2z M894.1,113.9l-34,87.4c-2.6,6.8-2.4,14.1,0.6,20.7c3,6.6,8.4,11.6,15.2,14.1L946,262v-52.6  l-26.9-10.1c-0.3-0.1-0.4-0.4-0.3-0.6l10.4-28.7c4.3-12,10-23.4,16.8-34.1V77C923.1,77.9,902.4,92.5,894.1,113.9z M779.6,566.3  c-3.1-4-6.7-7.6-10.8-10.7l-7.9,7.9c-3.7,3.7-9,4.7-13.8,2.7c-4.8-2-7.8-6.5-7.8-11.7v-11.1c-2.5-0.3-5.1-0.5-7.7-0.5  c-2.5,0-5,0.2-7.5,0.5v11.1c0,5.1-2.9,9.6-7.6,11.6l23.1,5.9c0,0,0.1,0,0.1,0c17.3,4.4,27.8,22.1,23.4,39.4  c-3.7,14.4-16.5,24.4-31.3,24.4c-2.6,0-5.3-0.3-8-1l-28.5-9c-0.4,2.5-1.6,4.9-3.6,6.9l-7.9,7.9c3.1,4.1,6.7,7.7,10.7,10.8l7.9-7.9  c3.7-3.7,9-4.7,13.8-2.7c4.8,2,7.8,6.5,7.8,11.7v11.2c2.5,0.3,5.1,0.5,7.7,0.5c2.5,0,5.1-0.2,7.5-0.5v-11.2c0-5.2,3-9.7,7.8-11.7  c4.8-2,10.1-0.9,13.8,2.7l7.9,7.9c3.3-2.5,6.3-5.4,9-8.6l1.2-2.8l-7.3-7.3c-3.7-3.7-4.7-9-2.7-13.8c2-4.8,6.5-7.8,11.7-7.8h6.9  l-15.8-5.8c-0.1,0-0.2-0.1-0.3-0.3c-0.1-0.1-0.1-0.3,0-0.4l3.7-9.9c-2.8-1.3-5-3.6-6.2-6.6c-2-4.8-0.9-10.1,2.7-13.8L779.6,566.3z   M536.3,574.7l12.8-11.6l0.6,0.8l0,0l-12,10.8l186.4,58.9c2.6,0.6,5.2,1,7.7,1c14.3,0,26.8-9.7,30.4-23.6  c4.3-16.7-5.9-33.8-22.6-38.1c0,0-0.1,0-0.1,0l-38.2-9.7l0.6-0.9l0.4-0.6l7.5-11.2h0.6c0.9,0,1.6-0.7,1.6-1.6c0-0.9-0.7-1.6-1.6-1.6  h-0.3v-0.4v-1.1c6.8-2.6,14.2-4,21.7-4c5.2,0,10.3,0.6,15.2,1.9c15.9,4,29,14,37.2,27.2l3.2-8.6c-9.1-12.4-22.4-21.9-38.5-25.9  c0,0,0,0-0.1,0c-5.6-1.4-11.4-2.1-17.1-2.1c-7.4,0-14.7,1.2-21.7,3.5v-1.1c6.9-2.3,14.2-3.5,21.7-3.5c5.8,0,11.6,0.7,17.3,2.1  c0,0,0,0,0.1,0c16.1,4.1,29.4,13.5,38.7,25.8l8.9-23.7c-11.3-11.1-25.4-19.4-41.5-23.6c-0.4,0.1-0.8,0.2-1.1,0.3  c-2.5,0.7-5.1,1.5-7.7,2.2c-1,0.3-2,0.6-3,0.8c-2.9,0.8-5.7,1.6-8.6,2.4c-0.7,0.2-1.4,0.4-2.1,0.6c-1.5,0.4-3,0.8-4.4,1.2  c-1.2,0.3-2.4,0.6-3.5,1c-0.8,0.2-1.5,0.4-2.3,0.6c-3.1,0.8-6.3,1.7-9.5,2.5c-0.6,0.2-1.3,0.3-1.9,0.5c-0.3,0.1-0.6,0.2-0.9,0.2v-1  c6-1.5,12-3.1,17.8-4.7c9.4-2.6,18.5-5.1,27.2-7.7c9.3-2.8,18.7-5.7,27.8-8.6c-0.1-0.2-0.1-0.4,0.1-0.6c0.2-0.2,0.5-0.2,0.7,0  l0.3,0.3c10.1-3.3,19.9-6.7,29.2-10l9.3-24.6c-0.3-0.2-0.7-0.3-1-0.4l-1.8-0.6c-0.1,0-0.1-0.1-0.2-0.1c-15.1,5.7-31.1,11-47.8,15.8  c-0.4,0.1-0.9,0.3-1.3,0.4c-2.6,0.7-5.2,1.5-7.8,2.2c-1.2,0.3-2.4,0.7-3.6,1c-1.8,0.5-3.6,1-5.4,1.4c-2.2,0.6-4.4,1.1-6.5,1.7  c-0.5,0.1-1.1,0.3-1.6,0.4c-11.8,3-23.6,5.7-35.4,8.1v-1c36.7-7.5,73.7-17.6,109.2-31c-0.1-6.9-1.3-14-3.7-21.3l-16-9.4  c-28.2-16.6-58.4-29-89.5-36.8v-1v-0.1c6.1,1.5,12.1,3.2,18.1,5.1c18,5.6,35.6,12.8,52.5,21.4c0.2,0.1,0.4,0.2,0.6,0.3  c4,2,7.9,4.1,11.8,6.3c0.4,0.3,0.9,0.5,1.3,0.8c1.8,1,3.7,2.1,5.5,3.2c0,0,0.1,0,0.1,0.1l8.1,4.8l6.8,4c-1.3-3.8-3-7.6-4.9-11.5  c-8.6-16.9-23.2-34-43.3-50.9c-15.1-12.7-28.7-21.3-32.8-23.8c-0.4,0.1-0.7,0.2-1.1,0.3c-0.2,0.1-0.4,0.1-0.6,0.2  c-0.8,0.2-1.6,0.4-2.4,0.6c-0.1,0-0.3,0.1-0.4,0.1c-2.2,0.4-4.4,0.6-6.7,0.6h-12.8h-1v187.2H541.4v-161c-0.3,0.1-0.7,0.3-1,0.4  c-14.7,6.3-33.4,11.2-64.3,11.2c-19.4,0-35.6-3.4-48.3-10.1c0.5,9.6,3.6,18.9,8.9,26.9l11.8,17.8c17.2,25.8,15.6,59.4-3.9,83.5  c-0.8,1-1.6,1.9-2.3,2.7c5.8,0.3,34.3,1.6,76.5,0.4c0,0,0,0,0-0.1c-0.4-0.7-0.9-1.4-1.3-2.1c0,0,0-0.1-0.1-0.1  c-0.4-0.7-0.8-1.4-1.2-2.1c0,0,0-0.1-0.1-0.1c-0.4-0.7-0.8-1.4-1.1-2.1c0-0.1-0.1-0.1-0.1-0.2c-0.4-0.7-0.7-1.4-1.1-2.1  c0-0.1-0.1-0.1-0.1-0.2c-0.3-0.7-0.7-1.4-1-2.1c0-0.1-0.1-0.1-0.1-0.2c-0.3-0.7-0.6-1.4-0.9-2.1c0-0.1-0.1-0.2-0.1-0.3  c-0.3-0.7-0.6-1.4-0.8-2.1c0-0.1-0.1-0.2-0.1-0.3c-0.3-0.7-0.5-1.3-0.7-2c0-0.1-0.1-0.2-0.1-0.4c-0.2-0.7-0.4-1.3-0.7-2  c0-0.1-0.1-0.3-0.1-0.4c-0.2-0.7-0.4-1.3-0.6-2c0-0.2-0.1-0.3-0.1-0.5c-0.2-0.6-0.3-1.3-0.5-1.9c0-0.2-0.1-0.4-0.1-0.5  c-0.1-0.6-0.3-1.2-0.4-1.9c0-0.2-0.1-0.4-0.1-0.6c-0.1-0.6-0.2-1.2-0.4-1.8c0-0.2-0.1-0.5-0.1-0.7c-0.1-0.6-0.2-1.2-0.3-1.8  c0-0.3-0.1-0.5-0.1-0.8c-0.1-0.6-0.2-1.1-0.2-1.7c0-0.3-0.1-0.6-0.1-0.9c-0.1-0.5-0.1-1.1-0.2-1.6c0-0.3-0.1-0.6-0.1-1  c0-0.5-0.1-1-0.1-1.5c0-0.4,0-0.7-0.1-1.1c0-0.5,0-0.9-0.1-1.4c0-0.4,0-0.8,0-1.2c0-0.4,0-0.8,0-1.3c0-0.5,0-0.9,0-1.4  c0-0.4,0-0.7,0-1.1c0-0.5,0-1,0.1-1.5c0-0.3,0-0.6,0-0.9c0-0.6,0.1-1.2,0.1-1.7c0-0.2,0-0.5,0.1-0.7c0.1-0.7,0.1-1.3,0.2-2  c0-0.2,0-0.3,0.1-0.5c0.1-0.7,0.2-1.5,0.3-2.2c0-0.1,0-0.1,0-0.2c1-6.6,2.8-13.2,5.4-19.6c5.4-12.9,14-24.3,24.8-33  c1.2-1,2.5-1.9,3.7-2.8v0v1.2c-1.1,0.8-2.1,1.5-3.1,2.3c-10.8,8.6-19.2,19.8-24.5,32.6c-10.4,25-7.7,53.5,7.2,76.1  c6.6-0.2,13.4-0.4,20.4-0.8v1c-3.3,0.1-6.6,0.3-9.8,0.4c-0.3,0-0.7,0-1,0c-2.5,0.1-5.1,0.2-7.5,0.3c-0.5,0-1,0-1.5,0  c0.3,0.5,0.6,0.9,1,1.4l-0.1-0.1c3.5,4.9,7.4,9.4,11.9,13.4c0.7,0.7,1.5,1.3,2.2,1.9l4.8,4.1v0v1.3l-5.4-4.7  c-6-5-11.2-10.9-15.5-17.4c-45.1,1.3-75-0.3-78-0.5c-6,6.5-13.2,11.8-21.3,15.7c-9.4,4.5-20,6.9-30.5,6.9h-49.2  c-7.1,0-13.8-3-18.5-8.3l-27.1-30.7c-2.6,4.2-5.9,8-9.8,11.3l-19.8,16.7c0.6,0.7,1.1,1.4,1.7,2c0.9,1.1,1.8,2.1,2.7,3.2  c1.6,1.9,3.2,3.8,4.8,5.6c0.7,0.8,1.3,1.6,2,2.3c1.6,1.8,3.1,3.6,4.7,5.3c0.9,1,1.8,2,2.8,3.1c1.3,1.4,2.6,2.8,3.9,4.2  c1.3,1.3,2.5,2.7,3.8,4c0.6,0.6,1.1,1.2,1.7,1.8c7.7,8,16.8,14.3,27.1,18.6c10.2,4.3,21.1,6.6,32.2,6.6h118.1h0  c11.3,0,20.5,9.1,20.8,20.3c5.1-0.1,10.1-2.1,13.9-5.5l13-11.8c0,0,0,0,0,0c0-0.2,0-0.4,0.2-0.5L536.3,574.7z M708.6,597.5  c2.7-10.6,12.2-18.1,23.2-18.1c2,0,4,0.3,5.9,0.8c10.6,2.7,18.1,12.2,18.1,23.2c0,2-0.2,4-0.7,5.8c0,0,0,0,0,0.1  c-2.7,10.6-12.2,18.1-23.2,18.1c-2,0-4-0.3-5.9-0.8c-6.2-1.6-11.4-5.5-14.7-11C707.9,610.2,707,603.7,708.6,597.5z M696.3,568.9  c-1.1,1.6-2.8,2.5-4.7,2.5H558.9c-1.9,0-3.7-0.9-4.7-2.5l-12.3-18.3h166.8L696.3,568.9z M540,548.3h0.3h169.7h0.3  c0.4,0,0.6,0.3,0.6,0.6c0,0.4-0.3,0.6-0.6,0.6H540c-0.4,0-0.6-0.3-0.6-0.6C539.4,548.6,539.7,548.3,540,548.3z M812.7,495.2  c-8.9,3.2-18.3,6.4-27.9,9.6l18,16.9L812.7,495.2z M726.2,625.7c1.9,0.5,3.8,0.7,5.7,0.7c10.5,0,19.6-7.1,22.2-17.3c0,0,0,0,0-0.1  c0.5-1.8,0.7-3.7,0.7-5.6c0-10.5-7.1-19.7-17.3-22.2c-1.9-0.5-3.8-0.7-5.7-0.7c-10.5,0-19.6,7.1-22.2,17.3  c-1.5,5.9-0.6,12.1,2.5,17.4C715.2,620.4,720.2,624.2,726.2,625.7z M454.2,676.7c-3.7-5-4.7-11.2-2.9-17l16.9-50.4h-12l-28.7,86.6  h11.8l4.8-14.4l0.6,0.8c5.7,8.5,15.3,13.5,25.5,13.5h21.1v-11.4h-21.6C463.4,684.5,457.8,681.7,454.2,676.7z M469.6,608.3h20.8  c-0.3-10.7-9.1-19.3-19.8-19.3H352.6h0c-11.3,0-22.2-2.2-32.6-6.6c-10.4-4.4-19.6-10.8-27.4-18.9c-9.9-10.2-19.5-21-28.5-32  c-1.8-2.2-3.6-4.5-5.4-6.7c-10.6-13.4-20.6-27.5-29.8-41.9c-27.4-42.9-24.7-98.6,6.7-138.6l44.3-56.5c9.1-14.7-4.2-44.9-6.6-50  l-66.6,88.5v5.7c0,3.5-1.2,7-3.3,9.8l-14,17.6c-3,3.8-7.4,6.1-12.2,6.2c-9.9,13.9-15.2,30.2-15.4,47.3c-0.2,17.8,5.3,34.9,15.8,49.3  l75.7,104.3c19,26.2,49.7,41.9,82.2,41.9h120.1H469.6z M187.3,412.5c-7.3,0-13.3-6-13.3-13.3s6-13.3,13.3-13.3s13.3,6,13.3,13.3  S194.6,412.5,187.3,412.5z M671.5,638c2.7-0.8,5.3-2.1,7.5-3.9c0.4-0.3,0.7-0.6,1.1-0.9c0,0,0.1,0,0.1-0.1c3-2.7,5.1-6.2,6.2-10.1  l-149.5-47.4l-3.3,3l-5.1,4.7c0,0-0.1,0.1-0.1,0.1l-8.2,7.4l140.3,47.4C663.9,639.2,667.8,639.1,671.5,638z M767.7,696H904v-9.6  l-136.3-15.3V696z M791.9,612.6l-23.1,53.7c-0.5,1.3-0.9,2.6-1,3.9L904,685.4c-0.3-15.7-11.6-28.9-27.1-31.6l-32.8-5.6  c-5.2-0.9-9.7-3.7-12.8-8c-3-4.2-4.2-9.2-3.4-14.3L791.9,612.6z M867.8,311.2c1.5,22.3-1.8,44.9-9.7,65.9l-85.5,227.3l66.8,24.6  l82.5-224.6c-5.1-10.7-10.8-20.6-16.8-28.3C884.8,350.1,872.7,329.1,867.8,311.2z M769.2,662.7c-10.9,6.9-23.8,10.8-37.4,10.8  c-5.8,0-11.6-0.7-17.3-2.1c0,0,0,0-0.1,0c-18.2-4.6-33.5-16.1-43.1-32.3c-1.9,0.5-3.9,0.8-5.8,0.8c0,0,0,0,0,0c0,0-0.1,0-0.1,0  c-0.4,0-0.8,0-1.2,0c-0.2,0-0.4,0-0.6-0.1c-0.2,0-0.5,0-0.7-0.1c-0.5-0.1-0.9-0.1-1.4-0.2c0,0,0,0,0,0c-0.5-0.1-1-0.2-1.5-0.3  l-4.6-1.6l-10.9-3.7c10.3,29.4,34.3,51.5,64.5,59.2c7.5,1.9,15.2,2.8,22.8,2.8c12.2,0,24-2.4,34.9-6.8v-16.8c0-0.4,0-0.9,0-1.3v-0.5  c0-0.1,0-0.1,0-0.2c0.1-1.5,0.5-3,1.1-4.5L769.2,662.7z M731.9,665c-5.2,0-10.3-0.6-15.2-1.9c-15.8-4-29.1-13.9-37.5-27.8  c-2,1.5-4.3,2.7-6.8,3.5c9.4,15.9,24.4,27.1,42.3,31.6c0,0,0,0,0.1,0c5.6,1.4,11.4,2.1,17.1,2.1c13.9,0,27.1-4.2,38.1-11.5l6.7-15.5  C765.3,657.6,749.3,665,731.9,665z M187.3,387c-6.8,0-12.3,5.5-12.3,12.3s5.5,12.3,12.3,12.3s12.3-5.5,12.3-12.3  S194.1,387,187.3,387z M177.7,542c-0.6,1.1-0.2,2.4,0.9,3.1l20.7,11.5c1.1,0.6,2.4,0.2,3.1-0.9c0.6-1.1,0.2-2.4-0.9-3.1l-20.7-11.5  C179.7,540.5,178.3,540.9,177.7,542z M219.6,546.9l-8.7-4.6c-0.6,0.7-1.5,1.2-2.4,1.2c0.1,0.2,0.2,0.5,0.3,0.7  c0.2,0.8,0.1,1.7-0.3,2.5c-0.6,1-1.6,1.6-2.7,1.6c0.5,0.8,0.6,1.8,0.2,2.8c14.6,13,23.5,31.8,23.5,52.4c0,5.9-0.7,11.8-2.1,17.3  c-7.9,31.1-35.8,52.9-67.9,52.9c-5.8,0-11.7-0.7-17.4-2.2c-18.1-4.6-33.4-16-43-32.1c-9.6-16.1-12.3-34.9-7.7-53.1  c7.9-31.1,35.8-52.9,67.9-52.9c5.8,0,11.6,0.7,17.3,2.2c0,0,0,0,0.1,0c1,0.3,2.1,0.5,3.1,0.9c0.6-0.8,1.5-1.2,2.4-1.3  c-0.5-1-0.6-2.1,0-3.2c0.6-1,1.6-1.6,2.7-1.6c-0.3-0.6-0.5-1.3-0.4-2c-14.4-7.1-29.8-12.1-45.5-15.1c-33.3,7.5-60.5,33.2-69.2,67.5  c-6.1,23.9-2.5,48.8,10.1,70c12.6,21.2,32.8,36.3,56.7,42.3c7.6,1.9,15.3,2.9,22.9,2.9c42.3,0,79.1-28.7,89.5-69.8  c1.9-7.3,2.8-15,2.8-22.8c0-18.1-5.2-35.1-14.4-49.6C231.3,552.2,225.3,549.9,219.6,546.9z M159.4,588.1c7.2,0,13.2,5,14.8,11.8  l18.4-33.3l-16.7-9.3l-2.7-1.5l-18.3,33C156.4,588.4,157.8,588.1,159.4,588.1z M175.9,549.9l20.7,11.5c1.1,0.6,2.4,0.2,3.1-0.9  c0.6-1.1,0.2-2.4-0.9-3.1l-20.7-11.5c-1.1-0.6-2.4-0.2-3.1,0.9C174.4,547.9,174.8,549.2,175.9,549.9z M172.4,551.6  c-0.6,1.1-0.2,2.4,0.9,3.1l20.7,11.5c1.1,0.6,2.4,0.2,3.1-0.9c0.6-1.1,0.2-2.4-0.9-3.1l-20.7-11.5  C174.3,550.1,173,550.5,172.4,551.6z M176.5,536.5C176.5,536.5,176.5,536.5,176.5,536.5c-5.7-1.4-11.4-2.2-17.2-2.2  c-31.6,0-59.1,21.4-66.9,52.1c-4.6,17.9-1.9,36.5,7.6,52.3c9.4,15.9,24.5,27.1,42.4,31.6c5.6,1.4,11.4,2.2,17.1,2.2  c31.6,0,59.1-21.4,66.9-52.1c1.4-5.4,2.1-11.1,2.1-17c0-20.2-8.7-38.8-23-51.5c-0.6,0.7-1.4,1.1-2.3,1.2c0.5,0.9,0.6,2.1,0,3.1  c-0.5,0.9-1.5,1.5-2.4,1.6c12.5,11.4,20.2,27.7,20.2,45.6c0,5.2-0.6,10.2-1.9,15.1c0,0,0,0,0,0.1c-6.9,27.3-31.4,46.4-59.5,46.4  c-1.3,0-2.5,0-3.8-0.1c-3.8-0.2-7.6-0.8-11.4-1.8c-15.9-4-29.3-14-37.7-28.1c-8.4-14.1-10.8-30.7-6.7-46.6  c4.6-17.9,16.7-32.3,32.4-40.1c8.2-4.1,17.5-6.3,27.1-6.3c5,0,10.2,0.6,15.2,1.9c0.7,0.2,1.4,0.4,2.1,0.6c-0.4-0.9-0.4-2,0.1-2.9  c0.6-1,1.6-1.6,2.7-1.6c-0.4-0.8-0.5-1.7-0.2-2.6C178.4,537,177.4,536.7,176.5,536.5z M181.3,540.3l20.7,11.5  c1.1,0.6,2.4,0.2,3.1-0.9c0.6-1.1,0.2-2.4-0.9-3.1l-20.7-11.5c-1.1-0.6-2.4-0.2-3.1,0.9C179.8,538.3,180.2,539.7,181.3,540.3z   M207.2,566.3c-1.9-2.5-4.1-4.8-6.4-7c0,0.6-0.1,1.2-0.4,1.7c-0.6,1-1.6,1.6-2.7,1.6c0.5,1,0.6,2.2,0,3.2c-0.6,1.1-1.7,1.7-2.8,1.7  c-0.5,0-1-0.1-1.5-0.4l-13.4,24.2c2.1,3.6,3.3,7.7,3.3,12.1c0,2-0.2,4-0.7,5.8c0,0,0,0,0,0.1c-2.7,10.6-12.2,18.1-23.2,18.1  c-2,0-4-0.3-5.9-0.8c-6.2-1.6-11.4-5.5-14.7-11c-3.3-5.5-4.2-11.9-2.6-18.2c2.7-10.5,12-17.9,22.8-18.1l10-18c-1.3-2-2-4.4-2-6.9  v-11.1c-2.6-0.3-5.1-0.5-7.6-0.5c-2.6,0-5.1,0.2-7.6,0.5v11.1c0,5.2-3,9.7-7.8,11.7c-4.8,2-10.1,0.9-13.8-2.7l-7.9-7.9  c-4,3.1-7.6,6.7-10.7,10.8l7.8,7.9c3.7,3.7,4.7,9,2.7,13.8c-2,4.8-6.5,7.8-11.7,7.8H99.4c-0.3,2.5-0.5,5-0.5,7.5  c0,2.6,0.2,5.2,0.5,7.7h11.1c5.2,0,9.7,3,11.7,7.8c2,4.8,0.9,10.1-2.7,13.8l-7.8,7.8c1.5,2,3.2,3.9,4.9,5.7c1.8,1.8,3.8,3.5,5.8,5.1  l7.9-7.9c3.7-3.7,9-4.7,13.8-2.7c4.8,2,7.8,6.5,7.8,11.7v11.1c2.6,0.3,5.1,0.5,7.7,0.5c2.5,0,5-0.2,7.5-0.5v-11.2  c0-5.2,3-9.7,7.8-11.7c4.8-2,10.1-0.9,13.8,2.7l7.9,7.9c4-3.1,7.6-6.7,10.7-10.8l-7.9-7.9c-3.7-3.7-4.7-9-2.7-13.8  c2-4.8,6.5-7.8,11.7-7.8h11.1c0.3-2.5,0.5-5,0.5-7.6c0-2.6-0.2-5.1-0.5-7.6h-11.1c-5.2,0-9.7-3-11.7-7.8c-2-4.8-0.9-10.1,2.7-13.8  L207.2,566.3z M137.2,597.8c-1.5,5.9-0.6,12.1,2.5,17.4c3.1,5.3,8.1,9,14.1,10.5c1.9,0.5,3.8,0.7,5.7,0.7c10.5,0,19.6-7.1,22.2-17.3  c0,0,0,0,0-0.1c0.5-1.8,0.7-3.7,0.7-5.6c0-4-1-7.8-2.8-11.1l-5,9.1c0.1,0.6,0.1,1.3,0.1,1.9c0,8.4-6.8,15.3-15.3,15.3  c-8.4,0-15.3-6.8-15.3-15.3c0-6.3,3.9-11.8,9.4-14.1l4.9-8.8C148.3,580.9,139.7,587.9,137.2,597.8z M210,541.8l-20-10.7  c-1.5-0.8-3-1.6-4.5-2.3c0,0.8,0.4,1.5,1.1,1.9l20.7,11.5C208.2,542.7,209.3,542.5,210,541.8z M207.7,546.1c0.3-0.5,0.4-1.1,0.2-1.7  s-0.5-1.1-1.1-1.4l-20.7-11.5c-1.1-0.6-2.4-0.2-3.1,0.9c-0.6,1.1-0.2,2.4,0.9,3.1l20.7,11.5C205.7,547.6,207,547.2,207.7,546.1z   M159.4,617.7c7.9,0,14.3-6.4,14.3-14.3s-6.4-14.3-14.3-14.3c-7.9,0-14.3,6.4-14.3,14.3S151.5,617.7,159.4,617.7z M159.4,595.3  c4.5,0,8.1,3.6,8.1,8.1c0,4.5-3.6,8.1-8.1,8.1s-8.1-3.6-8.1-8.1C151.2,598.9,154.9,595.3,159.4,595.3z M159.4,610.5  c3.9,0,7.1-3.2,7.1-7.1s-3.2-7.1-7.1-7.1s-7.1,3.2-7.1,7.1S155.4,610.5,159.4,610.5z"/>
<script xmlns=""/></svg>