<svg xmlns="http://www.w3.org/2000/svg" xmlns:xlink="http://www.w3.org/1999/xlink" version="1.1" id="Calque_1" x="0px" y="0px" viewBox="0 0 945 761" style="enable-background:new 0 0 945 761;" xml:space="preserve"><script xmlns=""/>
<path d="M416.9,245.5v-18h-0.5v-1h0.5v-19.6h-0.5v-1h0.5v-18h-0.5v-1h0.5v-19.6h-0.5v-1h0.5v-60.7c0-16.3,13.2-29.5,29.5-29.5h51.2  c16.2,0,29.5,13.2,29.5,29.5v60.7h0.5v1H527v19.6h0.5v1H527v18h0.5v1H527v19.6h0.5v1H527v18h1V105.6c0-16.8-13.7-30.5-30.5-30.5  h-51.2c-16.8,0-30.5,13.7-30.5,30.5v139.9H416.9z"/>
<rect x="415.9" y="341.7" width="1" height="54"/>
<rect x="527" y="341.7" width="1" height="54"/>
<path d="M528,416.6h4.2h19.2c2.4,0,4.3,1.9,4.3,4.3v23.7c0,1.3-0.6,2.5-1.5,3.3c-1,0.8-2.2,1.2-3.5,1l-22.8-2.6v24.6h71.9V400  c0-1.8-1.5-3.3-3.3-3.3H401.9c-1,0-1.9,0.4-2.5,1.2c-0.6,0.8-0.9,1.7-0.7,2.7l3.5,20.1c0.3,1.6,1.6,2.7,3.2,2.7c1,0,2-0.5,2.6-1.2  l3.2-3.9c0.8-1,2-1.6,3.4-1.6h1.4H528z"/>
<path d="M390.7,427.5l-5.1-28.1c-0.3-1.6-1.6-2.7-3.2-2.7h-35c-1.8,0-3.3,1.5-3.3,3.3v70.9h71.9v-37.4l-21.7-2.5  C392.4,430.7,391,429.3,390.7,427.5z"/>
<path d="M591.7,487.4c4.5,0,8.2-3.7,8.2-8.2v-7.2H528v15.5H591.7z"/>
<path d="M344.1,479.2c0,4.5,3.7,8.2,8.2,8.2h63.7v-15.5h-71.9V479.2z"/>
<polygon points="528,487.4 528,471.9 528,470.9 528,446.3 528,445.3 528,417.6 527,417.6 527,530.5 528,530.5 528,488.4 "/>
<polygon points="527,624.6 527,658.9 416.9,658.9 416.9,624.6 415.9,624.6 415.9,659.9 528,659.9 528,624.6 "/>
<polygon points="416.9,530.5 416.9,417.6 415.9,417.6 415.9,432.5 415.9,433.5 415.9,470.9 415.9,471.9 415.9,487.4 415.9,488.4   415.9,530.5 "/>
<rect x="408.4" y="329.2" width="127.2" height="5.2"/>
<path d="M408.4,337.3c0,1.9,1.5,3.4,3.4,3.4h120.3c1.9,0,3.4-1.5,3.4-3.4v-1.9H408.4V337.3z"/>
<rect x="408.4" y="316.8" width="127.2" height="5.2"/>
<rect x="408.4" y="323" width="127.2" height="5.2"/>
<path d="M508.2,269.8c0,10.7-8.7,19.4-19.4,19.4h-33.6c-10.7,0-19.4-8.7-19.4-19.4v-23.3h-23.9c-1.9,0-3.4,1.5-3.4,3.4v65.9h127.2  v-65.9c0-1.9-1.5-3.4-3.4-3.4h-23.9V269.8z"/>
<path d="M436.8,269.8c0,10.2,8.3,18.4,18.4,18.4h33.6c10.1,0,18.4-8.3,18.4-18.4v-23.3h-70.5V269.8z"/>
<polygon points="527.6,227.5 527.6,226.5 527,226.5 416.9,226.5 416.4,226.5 416.4,227.5 416.9,227.5 527,227.5 "/>
<polygon points="527.6,206.9 527.6,205.9 527,205.9 416.9,205.9 416.4,205.9 416.4,206.9 416.9,206.9 527,206.9 "/>
<polygon points="527.6,187.9 527.6,186.9 527,186.9 416.9,186.9 416.4,186.9 416.4,187.9 416.9,187.9 527,187.9 "/>
<polygon points="527.6,167.3 527.6,166.3 527,166.3 416.9,166.3 416.4,166.3 416.4,167.3 416.9,167.3 527,167.3 "/>
<path d="M416.6,563.9v-11.6h110.7v11.6h21v-30.4c0-1.1-0.9-2-2-2H397.6c-1.1,0-2,0.9-2,2v30.4H416.6z"/>
<path d="M416.6,602.7v-11.5h-21v30.4c0,1.1,0.9,2,2,2h148.7c1.1,0,2-0.9,2-2v-30.4h-21v11.5H416.6z"/>
<path d="M384.6,564.9c-1,0-1.7,0.8-1.7,1.8v21.8c0,1,0.8,1.8,1.7,1.8h32v-25.3H384.6z"/>
<path d="M559.3,590.2c1,0,1.7-0.8,1.7-1.8v-21.8c0-1-0.8-1.8-1.7-1.8h-32v25.3H559.3z"/>
<script xmlns=""/></svg>