<svg xmlns="http://www.w3.org/2000/svg" xmlns:xlink="http://www.w3.org/1999/xlink" version="1.1" id="Calque_1" x="0px" y="0px" viewBox="0 0 945 761" style="enable-background:new 0 0 945 761;" xml:space="preserve"><script xmlns=""/>
<path d="M488.1,633.7c3.8,3.5,9.9,3.5,13.9-0.2c2.9-2.7,6.6-4.5,10.5-5.3v-19.1c-3.7,0.8-7,2.5-9.8,5c-4.3,4-11,4-15.2,0.1  c-1.7-1.5-3.5-2.7-5.5-3.6l-4.2,0.6c-1.3,0.2-2.7,0.3-4.1,0.3v16.2C478.9,628,484,630,488.1,633.7z"/>
<path d="M451.5,617.2c-2.8,0-5.6-1-7.8-3c-2.8-2.5-6.1-4.2-9.8-5v19.1c3.9,0.8,7.5,2.6,10.5,5.3c4,3.6,10.1,3.7,13.9,0.2  c4-3.8,9.2-5.7,14.4-5.8v-16.2c-1.6,0-3.2-0.1-4.8-0.4l-3.7-0.5c-1.9,0.9-3.7,2.1-5.3,3.6C456.9,616.3,454.2,617.2,451.5,617.2z"/>
<path d="M458.3,653.8c4-3.8,9.2-5.7,14.4-5.8v-19.1c-4.9,0.1-9.9,2-13.7,5.5c-2.1,1.9-4.7,2.9-7.4,2.9c-2.8,0-5.6-1-7.8-3  c-2.8-2.5-6.1-4.2-9.8-5v19c3.9,0.8,7.5,2.6,10.4,5.3C448.4,657.3,454.5,657.3,458.3,653.8z"/>
<path d="M444.4,613.5c4,3.6,10.1,3.7,13.9,0.2c1.3-1.2,2.8-2.2,4.3-3.1l-3.3-0.5c-11.3-1.7-20.8-8.9-25.4-19.2v17.4  C437.8,609,441.5,610.8,444.4,613.5z"/>
<path d="M494.8,675.8c-2.7,0-5.4-1-7.4-2.9c-3.8-3.6-8.8-5.4-13.7-5.5v21c13.7-0.2,25.8-7.5,32.7-18.3c-1.3,0.8-2.6,1.7-3.8,2.7  C500.4,674.7,497.6,675.8,494.8,675.8z"/>
<path d="M487.4,634.5c-3.9-3.6-8.8-5.4-13.7-5.5V648c5.2,0.1,10.3,2,14.4,5.8c3.8,3.5,9.9,3.5,13.9-0.2c2.9-2.7,6.6-4.5,10.5-5.3  v-19.1c-3.7,0.8-7,2.5-9.8,5C498.2,638.3,491.6,638.4,487.4,634.5z"/>
<path d="M458.9,672.9c-4.2,3.9-10.9,3.8-15.2-0.2c-1.2-1-2.4-1.9-3.7-2.7c6.9,10.9,18.9,18.1,32.7,18.3v-21  C467.7,667.5,462.8,669.3,458.9,672.9z"/>
<path d="M501.9,613.5c2.9-2.7,6.5-4.5,10.5-5.3v-19.1c-4.3,11.2-14.1,19.1-26.1,20.9l-2.7,0.4c1.6,0.9,3.1,1.9,4.4,3.2  C491.9,617.2,498,617.1,501.9,613.5z"/>
<path d="M444.4,672c4,3.6,10.1,3.7,13.9,0.2c4-3.8,9.2-5.7,14.4-5.8V649c-4.9,0.1-9.9,2-13.7,5.5c-4.2,3.9-10.9,3.8-15.2-0.2  c-2.8-2.5-6.1-4.2-9.8-5c0,7,1.9,13.6,5.2,19.3l0.1-0.2C441.1,669.4,442.8,670.6,444.4,672z"/>
<path d="M494.8,657.4c-2.7,0-5.4-1-7.4-2.9c-3.8-3.6-8.8-5.4-13.7-5.5v17.4c5.2,0.1,10.3,2,14.4,5.8c3.8,3.5,9.9,3.5,13.9-0.2  c1.6-1.5,3.4-2.7,5.4-3.6c3.2-5.6,5-12.1,5.1-19c-3.6,0.8-7,2.5-9.8,5C500.4,656.4,497.6,657.4,494.8,657.4z"/>
<path d="M587.3,511.9v-54.7c-4.6,0.2-9.7,0.4-15.3,0.5V507C577.5,507.7,582.7,509.4,587.3,511.9z"/>
<path d="M565.7,506.5c1.8,0,3.6,0.1,5.4,0.3v-49.1c-4.5,0.1-9.3,0.3-14.2,0.4l-19.7,58.2C545,510.3,554.9,506.5,565.7,506.5z"/>
<path d="M517.8,251.2c13.9,2.2,30.6,6,44.4,12.2l-1.1-24.9h-0.4H384.9h-0.4l-1.1,24.9c13.8-6.2,30.5-9.9,44.4-12.2  c23.8-3.8,44.7-4.2,44.9-4.2l0,0.5l0-0.5C473,247,494,247.3,517.8,251.2z"/>
<path d="M364.7,519h44.7l-20.6-60.8c-15.3-0.4-29.4-0.9-38.9-1.3v47.3C349.9,512.3,356.6,519,364.7,519z"/>
<path d="M473.3,610.7c1.4,0,2.8-0.1,4.3-0.3l8.6-1.3c12-1.8,21.8-10,25.7-21.5l8.4-24.8c-0.7-3.2-1.1-6.5-1.1-9.8  c0-14.1,6.4-26.8,16.4-35.3l20.1-59.4c-35.7,1-77.5,1.8-82.4,1.8V610.7z"/>
<path d="M433.7,587.6c3.9,11.5,13.7,19.7,25.7,21.5l8.6,1.3c1.4,0.2,2.8,0.3,4.3,0.3V460.1c-5.1-0.1-46.8-0.9-82.4-1.8L433.7,587.6z  "/>
<path d="M565.7,507.5c-25.1,0-45.4,20.4-45.4,45.4s20.4,45.4,45.4,45.4s45.4-20.4,45.4-45.4S590.8,507.5,565.7,507.5z M565.7,584.5  c-17.4,0-31.5-14.1-31.5-31.5c0-17.4,14.1-31.5,31.5-31.5s31.5,14.1,31.5,31.5C597.2,570.3,583,584.5,565.7,584.5z"/>
<path d="M472.8,434.3c-122.3,0-144.6-4.3-148.5-5.6c-0.1,4.1-0.1,25.1,16.4,26.6c18.7,1.7,131,3.8,132.1,3.8  c1.1,0,113.4-2.1,132.1-3.8c16.5-1.5,16.6-22.5,16.4-26.6C617.5,429.9,595.4,434.3,472.8,434.3L472.8,434.3z"/>
<path d="M380.5,424.3l-16-0.3c-3.2-0.1-6.2-1.6-8.1-4.1c-1.9-2.6-2.6-5.8-1.8-9l0.2-0.9l0,0c1.5-5.4,4.1-10.3,7.6-14.7l3.5-4.4  c2.5-3.1,6.2-4.9,10.1-5.2l-12.6-107.6c-19.8,15.1-32.6,37.8-35.3,62.3c-2.5,23.1-3.8,52.5-3.8,87.1c1.2,0.5,9.6,3,57.1,4.5  L380.5,424.3z"/>
<path d="M472.3,414.9h-20.2c-18.6,0-34.6-12.6-39-30.7l-4-16.4c-0.9-3.6-0.3-7.2,1.7-10.3c2-3.1,5-5.2,8.6-5.9l11.6-2.3  c13.7-2.7,27.4-4.1,41.2-4.2V248c-6.9,0.2-83.6,2.6-108.1,29.4L377,385.7c2,0,4.1,0.5,6,1.4l6.6,3.3c8.1,4.1,15,10.2,20,17.8  l0.1,0.2c2.2,3.3,2.3,7.3,0.4,10.8c-1.9,3.4-5.3,5.4-9.1,5.4c-0.1,0-0.1,0-0.2,0l-19.3-0.4l0.9,7.9c21.3,0.7,50.3,1.1,89.9,1.1  V414.9z"/>
<path d="M579.7,390.9l3.5,4.4c3.5,4.4,6,9.3,7.6,14.7l0,0l0.2,0.9c0.8,3.1,0.2,6.4-1.8,9c-1.9,2.6-4.9,4.1-8.1,4.1l-15.3,0.3  l-0.9,7.9c46.5-1.5,54.9-3.9,56.3-4.5c0-34.7-1.3-64-3.8-87.2c-2.6-24.6-15.5-47.3-35.3-62.4l-12,107.7  C573.9,386.1,577.3,387.9,579.7,390.9z"/>
<path d="M473.3,345.2c13.9,0,27.8,1.4,41.6,4.2l11.2,2.2c3.7,0.7,6.8,2.9,8.8,6.1c2,3.2,2.5,6.9,1.5,10.6l-4.8,17.3  c-4.8,17.1-20.4,29.2-38.2,29.4v0l-0.5,0h-19.5v18.4c40.1,0,69.3-0.5,90.7-1.1l0.9-7.9l-20.1,0.4c-0.1,0-0.1,0-0.2,0  c-3.9,0-7.3-2-9.1-5.4c-1.9-3.5-1.7-7.5,0.4-10.8l0.1-0.1c5-7.6,11.9-13.7,20.1-17.8l6.6-3.3c2.1-1,4.3-1.5,6.5-1.4l12.1-108.4  c-24.7-26.7-101.1-29.2-108-29.3V345.2z"/>
<path d="M565.7,522.5c-16.8,0-30.5,13.7-30.5,30.5s13.7,30.5,30.5,30.5c16.8,0,30.5-13.7,30.5-30.5S582.5,522.5,565.7,522.5z   M565.7,559.3c-3.5,0-6.3-2.8-6.3-6.3s2.8-6.3,6.3-6.3s6.3,2.8,6.3,6.3S569.2,559.3,565.7,559.3z"/>
<path d="M571,553c0-2.9-2.4-5.3-5.3-5.3c-2.9,0-5.3,2.4-5.3,5.3c0,2.9,2.4,5.3,5.3,5.3C568.6,558.3,571,555.9,571,553z"/>
<path d="M492.9,413.9c17.5,0,33-11.8,37.7-28.7l4.8-17.3c0.9-3.3,0.4-6.8-1.4-9.8c-1.8-3-4.7-5-8.1-5.6l-11.2-2.2  c-13.8-2.8-27.8-4.1-41.7-4.1c-13.9,0-27.9,1.4-41.7,4.1l-11.6,2.3c-3.3,0.7-6.2,2.6-8,5.5c-1.8,2.9-2.4,6.3-1.6,9.5l4,16.4  c4.3,17.6,19.9,29.9,38,29.9L492.9,413.9z"/>
<path d="M384.9,237.5h175.8c1.8,0,3.3-1.5,3.3-3.3c0-1.8-1.5-3.3-3.3-3.3H384.9c-1.8,0-3.3,1.5-3.3,3.3  C381.6,236,383.1,237.5,384.9,237.5z"/>
<path d="M389.1,391.4l-6.6-3.3c-5.4-2.7-12.1-1.2-15.8,3.5l-3.5,4.4c-3.6,4.5-6.2,9.6-7.6,15.2l-0.2,0.6c-0.5,2.6,0.1,5.3,1.7,7.5  c1.8,2.3,4.4,3.7,7.4,3.7l36.4,0.7c3.6,0,6.7-1.8,8.5-4.9c1.7-3.1,1.6-6.8-0.4-9.8l-0.1-0.2C403.9,401.4,397.1,395.4,389.1,391.4z"/>
<path d="M581.2,423c2.9-0.1,5.6-1.4,7.4-3.7c1.7-2.2,2.3-5,1.7-7.7l-0.1-0.4c-1.5-5.6-4-10.7-7.6-15.2l-3.5-4.4  c-2.5-3.1-6.3-4.8-10.1-4.8c-1.9,0-3.9,0.4-5.7,1.3l-6.6,3.3c-8,4-14.8,10-19.7,17.5l-0.1,0.1c-2,3-2.1,6.7-0.4,9.8  c1.7,3.1,4.8,4.9,8.3,4.9c0.1,0,0.1,0,0.2,0L581.2,423z"/>
<path d="M351,209.2c0.6,2.4,2.2,4.4,4.3,5.6c3.9,2.1,8.7,1,11.3-2.6l2-2.9c6.3-8.8,16.4-14,27.2-14H551c10.8,0,20.9,5.2,27.2,14  l2,2.9c2.6,3.6,7.4,4.7,11.3,2.6c2.2-1.2,3.7-3.2,4.3-5.6c0.6-2.4,0.2-4.9-1.2-6.9C563.7,156,499.5,151,473.4,151  c-26.2,0-90.3,5-121.2,51.2C350.8,204.3,350.4,206.8,351,209.2z"/>
<path d="M192.4,339.8c3.9-19.2,12.9-38.6,22.6-51.7c-8.4,11.3-15.5,25.8-19.9,40.7c-0.2,0.7-0.8,1.3-1.4,1.5c-0.8,3-1.6,6-2.2,8.8  L192.4,339.8z"/>
<path d="M407.1,214.9h1.7c2.3,0,4.3,1.9,4.4,4c0.1,1.2-0.4,2.3-1.2,3.1c-0.8,0.8-1.9,1.3-3,1.3h-23c-3.4,0-6.8,1.4-9.2,3.9  c-3,3.1-4.2,7.4-3.3,11.6l2.5,11.3c1,4.3-0.7,8.9-4.2,11.6l-16.9,13c-20.1,15-33.1,37.9-35.8,62.8c-1.6,15.3-2.7,33.6-3.3,54.4  c-0.3,11.3-4.3,22.3-11.3,31.2l0.8,0.6c7.2-9,11.2-20.2,11.5-31.7c0.5-20.8,1.6-39.1,3.3-54.3c2.7-24.7,15.6-47.3,35.4-62.1l17-13  c3.8-2.9,5.6-7.9,4.6-12.6l-2.5-11.3c-0.9-3.9,0.3-7.9,3-10.7c2.2-2.3,5.3-3.6,8.5-3.6h23c1.4,0,2.8-0.6,3.8-1.6  c1-1,1.5-2.4,1.4-3.9c-0.1-2.6-2.6-4.8-5.3-4.9C408.5,214.5,407.8,214.9,407.1,214.9z"/>
<path d="M369.2,223.3c0-0.1,0.1-0.1,0.1-0.2C369.3,223.2,369.2,223.3,369.2,223.3z"/>
<path d="M330.3,245.8c1-0.1,1.9-0.3,2.8-0.4C332.2,245.5,331.3,245.6,330.3,245.8z"/>
<path d="M302.7,427.6l-0.1-0.1l-0.8-0.6L267.7,439c-3,1.1-6.2,0.6-8.8-1.3l-1.6-1.2l0,0l-65.1-48.5c-2.5-1.9-3.9-4.9-3.8-8l1.6-36.1  l-1-0.7l-1.7,36.8c-0.1,3.5,1.4,6.8,4.2,8.8l66.7,49.7l1.6,1.2l-0.1-0.3c1.5,0.7,3.1,1.1,4.7,1.1c1.2,0,2.3-0.2,3.5-0.6L302.7,427.6  C302.7,427.6,302.7,427.6,302.7,427.6L302.7,427.6z"/>
<path d="M304.5,423.1l-112.1-83.3l-0.9-0.7l-0.9-0.7c-0.4-0.3-0.8-0.4-1.3-0.3c-0.5,0.1-0.9,0.3-1.2,0.7l-0.7,0.9  c-0.3,0.4-0.4,0.8-0.3,1.3c0.1,0.5,0.3,0.9,0.7,1.2l1.3,1l1,0.7l111.7,83.1l0.8,0.6l0.1,0.1h0c0,0,0.1,0,0.1,0  c0.3,0.1,0.5,0.2,0.8,0.2c0.1,0,0.2,0,0.3,0c0.5-0.1,0.9-0.3,1.2-0.7l0.7-0.9c0.3-0.4,0.4-0.8,0.3-1.3c-0.1-0.5-0.3-0.9-0.7-1.2l0,0  L304.5,423.1z M304.7,424.5c0.2,0.1,0.3,0.3,0.3,0.5c0,0.2,0,0.4-0.1,0.6l-0.7,0.9c-0.1,0.2-0.3,0.3-0.5,0.3c-0.2,0-0.4,0-0.6-0.1  l-0.1-0.1h0l-114.6-85.2c-0.2-0.1-0.3-0.3-0.3-0.5c0-0.2,0-0.4,0.1-0.6l0.7-0.9c0.1-0.2,0.3-0.3,0.5-0.3c0.2,0,0.4,0,0.6,0.1  L304.7,424.5z"/>
<path d="M195.1,328.8c4.4-14.9,11.5-29.4,19.9-40.7c14.3-19.3,36.2-32.1,60.1-35.2l55.3-7.1c1-0.1,1.9-0.3,2.8-0.4  c14.2-2.5,26.9-10.1,35.2-21c0.2-0.3,0.5-0.6,0.8-0.9c0-0.1,0.1-0.1,0.1-0.2c4.5-5.2,11.2-8.3,18.1-8.3h19.7c0.8,0,1.4-0.4,1.8-1  c0.2-0.3,0.4-0.7,0.4-1.2c0-1.2-1-2.2-2.2-2.2h-19.7c-8.8,0-16.8,3.9-22.1,10.7c-8.8,11.2-21.4,18.4-35.6,20.2l-55.3,7.1  c-25,3.2-48,16.7-63,36.9c-9.1,12.2-16.2,26.8-20.6,42c-0.2,0.6-0.1,1.2,0.2,1.7c0.3,0.5,0.9,0.9,1.5,1l0,0c0.1,0,0.3,0,0.4,0  c0.2,0,0.4,0,0.7-0.1C194.3,330,194.9,329.5,195.1,328.8z M192,328.8c-0.2-0.3-0.2-0.6-0.1-0.9c4.4-15.2,11.5-29.6,20.5-41.7  c14.9-20,37.6-33.3,62.3-36.5l55.3-7.1c14.4-1.9,27.3-9.2,36.2-20.6c5.1-6.5,12.9-10.3,21.3-10.3h19.7c0.6,0,1.2,0.5,1.2,1.2  s-0.5,1.2-1.2,1.2h-19.7c-7.7,0-15.1,3.7-19.8,9.8c-8.7,11.4-22.4,19.1-37.4,21.1l-55.3,7.1c-24.1,3.1-46.2,16.1-60.7,35.6  c-8.5,11.4-15.6,26-20.1,41c-0.2,0.6-0.7,0.9-1.4,0.8C192.4,329.3,192.1,329,192,328.8z"/>
<script xmlns=""/></svg>