<svg xmlns="http://www.w3.org/2000/svg" xmlns:xlink="http://www.w3.org/1999/xlink" version="1.1" id="Calque_1" x="0px" y="0px" viewBox="0 0 945 761" style="enable-background:new 0 0 945 761;" xml:space="preserve"><script xmlns=""/>
<path d="M530.3,165l3.6,0c-8.1-11.8-21.7-19.3-36.5-19.3l-6.3,0l0,2.9l6.3,0C510.2,148.6,522.5,154.7,530.3,165z"/>
<path d="M451.1,151c0-1.4,1.2-2.6,2.6-2.6l7.7,0l0-2.9l-7.7,0c-3,0-5.5,2.5-5.5,5.5l0,13.7l2.9,0L451.1,151z"/>
<rect x="450.5" y="163.3" transform="matrix(3.037032e-03 -1 1 3.037032e-03 283.425 624.1348)" width="8.4" height="13.2"/>
<path d="M491.1,165.8l0,8.4l47.8,0.2c-1.1-3-2.5-5.8-4.2-8.4L491.1,165.8z"/>
<path d="M452.1,151l-0.1,13.7l9.3,0l0.1-15.3l-7.7,0C452.8,149.4,452.1,150.1,452.1,151z"/>
<path d="M497.4,149.6l-6.3,0l-0.1,15.3l38,0.1C521.4,155.4,509.7,149.6,497.4,149.6z"/>
<path d="M584.8,218.6l-13-39.7c-0.6-2-2.5-3.3-4.6-3.3l-122.1-0.4c-2.3,0-4.3,1.6-4.7,3.8l-0.5,2.5c-0.9,4.2-2.1,8.2-3.7,12.1  c14.4,11.2,28,23.6,40.7,36.9l2.5,2.6c3.5,3.6,5.5,8.1,5.9,13.1c0.8,10.6-6.4,20.2-16.8,22.4c-1.5,0.3-3,0.5-4.5,0.5l-93-0.3  c1.2,4.9,3.1,9.8,5.4,14.5h209.1c3.1-9.2,4.7-18.9,4.8-29.1C590.4,242,588.6,230.1,584.8,218.6z M476.2,192.9c-2,0-3.6-1.6-3.6-3.6  s1.6-3.6,3.6-3.6s3.6,1.6,3.6,3.6S478.1,192.9,476.2,192.9z M560.1,193.2c-2,0-3.6-1.6-3.6-3.6s1.6-3.6,3.6-3.6s3.6,1.6,3.6,3.6  S562.1,193.2,560.1,193.2z"/>
<path d="M464.1,268c1.4,0,2.8-0.1,4.2-0.4c9.9-2.1,16.8-11.2,16-21.3c-0.4-4.5-2.1-8.6-5.1-11.9l-3-3.2  c-32.4-34.1-70.5-61.4-113.3-81l-0.7,0.7c2.1,2.3,2.9,5.7,2,8.7c-13.8,44.3-1.1,96.8,1.6,106.8c0.2,0.8,0.9,1.3,1.7,1.3L464.1,268z   M464.1,229.8c9.9,0,18,8.1,18,18c0,9.9-8.1,18-18,18s-18-8.1-18-18C446.1,237.8,454.2,229.8,464.1,229.8z"/>
<path d="M464.1,264.8c9.4,0,17-7.6,17-17c0-9.4-7.6-17-17-17c-9.4,0-17,7.6-17,17C447.1,257.2,454.8,264.8,464.1,264.8z M464.1,233  c8.1,0,14.7,6.6,14.7,14.7c0,8.1-6.6,14.7-14.7,14.7c-8.1,0-14.7-6.6-14.7-14.7C449.4,239.6,456,233,464.1,233z"/>
<path d="M464.1,261.5c7.6,0,13.7-6.2,13.7-13.7c0-7.6-6.2-13.7-13.7-13.7c-7.6,0-13.7,6.2-13.7,13.7  C450.4,255.4,456.6,261.5,464.1,261.5z M456.6,240.5l16.6,12.4l-1.6,2.1L455,242.6L456.6,240.5z"/>
<rect x="463.8" y="238.4" transform="matrix(0.5989 -0.8008 0.8008 0.5989 -12.2685 471.0938)" width="0.6" height="18.7"/>
<path d="M562.7,189.6c0-1.4-1.1-2.6-2.6-2.6c-1.4,0-2.6,1.1-2.6,2.6s1.1,2.6,2.6,2.6C561.6,192.2,562.7,191,562.7,189.6z"/>
<path d="M476.2,186.8c-1.4,0-2.6,1.1-2.6,2.6c0,1.4,1.1,2.6,2.6,2.6c1.4,0,2.6-1.1,2.6-2.6C478.7,187.9,477.6,186.8,476.2,186.8z"/>
<path d="M486.3,155.5c0,2.7-1,5.1-2.9,7c-0.8,0.8-1.7,1.4-2.7,1.9l0,2l-8.9,0l0-2c-1-0.5-1.9-1.1-2.7-1.9c-1.9-1.9-2.9-4.4-2.9-7  l0.1-21.2c-0.8,0.3-1.5,0.7-2.1,1.3c-1.1,1.1-1.7,2.5-1.7,4.1l-0.1,34.6l27.7,0.1l0.1-34.6c0-1.5-0.6-3-1.7-4.1  c-0.6-0.6-1.3-1-2.1-1.3L486.3,155.5z"/>
<path d="M482.1,98.1L482.1,98.1l1.4,0l0-15.1c0-2.7-2.2-5-4.9-5h-4.2c0,0,0,0,0,0c-2.7,0-4.9,2.2-4.9,4.9l0,15.1l1.9,0l0,0  L482.1,98.1z"/>
<polygon points="469.3,114.4 469.3,132.8 483.4,132.9 483.4,114.5 "/>
<path d="M469.3,114.4l14.1,0l1,0c0,0,0,0,0,0c0,0,0,0,0,0c1.6,0,2.9-1.3,2.9-2.9l0-3c-0.2,0-0.3,0.1-0.5,0.1c0,0,0,0,0,0l-0.5,0  l0,2.9c0,1.1-0.9,1.9-2,1.9c0,0,0,0,0,0l-16.1-0.1c-1.1,0-1.9-0.9-1.9-2l0-2.9l-0.5,0c-0.2,0-0.4,0-0.5-0.1l0,3c0,1.6,1.3,2.9,2.9,3  c0,0,0,0,0,0L469.3,114.4z"/>
<path d="M483.4,98.2l-1.4,0l0,1l2.4,0c0.5,0,1,0.2,1.4,0.6c0.4,0.4,0.6,0.9,0.6,1.4l0,2.9l0.5,0c0.2,0,0.3,0,0.5,0.1l0-3  c0-0.8-0.3-1.5-0.9-2.1c-0.6-0.6-1.3-0.9-2.1-0.9l0,0L483.4,98.2z"/>
<path d="M465.9,104C466,104,466,104,465.9,104l0.5,0l0-2.9c0-0.5,0.2-1,0.6-1.4c0.4-0.4,0.9-0.6,1.4-0.6c0,0,0,0,0,0l2.4,0l0-0.5  l0.5,0l0-0.5l-1.9,0l-0.9,0c0,0,0,0,0,0c0,0,0,0-0.1,0c-0.8,0-1.5,0.3-2,0.9c-0.6,0.6-0.9,1.3-0.9,2.1l0,3  C465.6,104,465.8,104,465.9,104z"/>
<path d="M486.9,104l-0.5,0l-4.3,0l0,1l4.8,0c0.7,0,1.3,0.6,1.3,1.3c0,0.3-0.1,0.7-0.4,0.9c-0.2,0.2-0.5,0.4-0.9,0.4l-4.9,0  c0,0.3-0.1,0.7-0.2,1l4.6,0l0.5,0c0,0,0,0,0,0c0.2,0,0.3,0,0.5-0.1c0.4-0.1,0.8-0.3,1.1-0.6c0.4-0.4,0.7-1,0.7-1.6  c0-1.1-0.7-2-1.7-2.2C487.2,104,487,104,486.9,104z"/>
<path d="M465.9,108.5l0.5,0l4.6,0c-0.1-0.3-0.2-0.7-0.2-1l-4.8,0c-0.3,0-0.7-0.1-0.9-0.4c-0.2-0.2-0.4-0.6-0.4-0.9  c0-0.7,0.6-1.3,1.3-1.3c0,0,0,0,0,0l4.8,0l0-1l-4.3,0l-0.5,0c0,0,0,0,0,0c-0.2,0-0.4,0-0.5,0.1c-1,0.2-1.7,1.1-1.7,2.2  c0,0.6,0.2,1.2,0.7,1.6c0.3,0.3,0.7,0.5,1.1,0.6C465.6,108.5,465.8,108.5,465.9,108.5z"/>
<path d="M474.4,110.8l4,0c0,0,0,0,0,0c1,0,1.9-0.4,2.6-1.1c0.4-0.3,0.6-0.8,0.8-1.2c0.1-0.3,0.2-0.7,0.2-1c0-0.1,0-0.2,0-0.4l0-2.2  l0-1l0-4.9l0-1l0,0l-10.8,0l0,0l0,0.5l-0.5,0l0,0.5l0,4.9l0,1l0,2.2c0,0.1,0,0.3,0,0.4c0,0.3,0.1,0.7,0.2,1  C471.6,109.9,472.9,110.8,474.4,110.8z M471.7,107.2l0-8.1l9.3,0l0,8.1c0,0.7-0.3,1.4-0.8,1.9c-0.5,0.5-1.2,0.8-1.9,0.8c0,0,0,0,0,0  l-4,0C472.9,109.8,471.7,108.6,471.7,107.2z"/>
<path d="M471.9,141.7c0-2.4,2-4.4,4.4-4.4h0.1c1.2,0,2.3,0.5,3.1,1.3c0.8,0.8,1.3,1.9,1.3,3.1l-0.1,21.5c0.7-0.4,1.4-0.9,2-1.5  c1.7-1.7,2.6-3.9,2.6-6.3l0.1-21.6l-18.1-0.1l-0.1,21.6c0,2.4,0.9,4.6,2.6,6.3c0.6,0.6,1.3,1.1,2,1.5L471.9,141.7z"/>
<rect x="468.4" y="154.1" transform="matrix(3.400618e-03 -1 1 3.400618e-03 317.1273 633.2585)" width="15.8" height="6.9"/>
<path d="M479.8,141.8c0-0.9-0.3-1.8-1-2.4c-0.6-0.6-1.5-1-2.4-1h-0.1c0,0,0,0,0,0c-1.9,0-3.4,1.5-3.4,3.4l0,6.9l6.9,0L479.8,141.8z"/>
<rect x="605.3" y="288.3" width="1" height="334.4"/>
<rect x="339.6" y="288.3" width="1" height="334.4"/>
<path d="M340.6,288.3h264.7h1h1c1.4,0,2.6-1.1,2.6-2.6c0-1.4-1.1-2.6-2.6-2.6h-20.6h-1.1H376.5h-1.1h-36.8c-1.4,0-2.6,1.1-2.6,2.6  c0,1.4,1.1,2.6,2.6,2.6h1H340.6z M337.1,285.8c0-0.9,0.7-1.6,1.6-1.6h268.6c0.9,0,1.6,0.7,1.6,1.6c0,0.9-0.7,1.6-1.6,1.6H338.6  C337.8,287.3,337.1,286.6,337.1,285.8z"/>
<path d="M604.8,627.3l-19.7,29.3c-1.7,2.6-4.6,4.1-7.6,4.1H368.4c-3.1,0-5.9-1.5-7.6-4.1L341,627.3h-1.2l20.1,29.9  c1.9,2.8,5.1,4.5,8.5,4.5h209.1c3.4,0,6.6-1.7,8.5-4.5l20.1-29.9H604.8z"/>
<path d="M605.3,622.7H340.6h-1h-0.8c-1.3,0-2.3,1-2.3,2.3c0,1.3,1,2.3,2.3,2.3h1h1.2h263.8h1.2h1c1.3,0,2.3-1,2.3-2.3  c0-1.3-1-2.3-2.3-2.3h-0.8H605.3z M608.4,625c0,0.7-0.6,1.3-1.3,1.3H338.8c-0.7,0-1.3-0.6-1.3-1.3c0-0.7,0.6-1.3,1.3-1.3h0.8h266.7  h0.8C607.8,623.7,608.4,624.3,608.4,625z"/>
<path d="M483.6,294.1h-21.3v183.3h21.3V294.1z M462.3,323.7h21.3v1h-21.3V323.7z"/>
<rect x="462.3" y="502.4" width="21.3" height="112.4"/>
<rect x="462.3" y="323.7" width="21.3" height="1"/>
<script xmlns=""/></svg>