<svg xmlns="http://www.w3.org/2000/svg" xmlns:xlink="http://www.w3.org/1999/xlink" version="1.1" id="Calque_1" x="0px" y="0px" viewBox="0 0 945 761" style="enable-background:new 0 0 945 761;" xml:space="preserve"><script xmlns=""/>
<path d="M157.6,158.5c-0.4,0.3-0.9,0.3-1.4,0.2l-0.2-0.1c-0.2-0.1-0.4-0.2-0.6-0.4c-0.4-0.4-0.6-0.9-0.6-1.4c0-0.5,0.2-1,0.6-1.3  c4.6-4.3,9-11.3,13.3-18.2c7.4-11.9,15.1-24.2,24.6-24.2c31.5-0.1,93.8,3.5,157.1,29.7c21,8.7,40.5,19.2,58,31.3  c0.4,0.3,0.6,0.7,0.7,1.2c0.1,0.5-0.1,0.9-0.4,1.3c-0.5,0.6-1.2,0.7-1.9,0.5c-0.1-0.1-0.2-0.1-0.3-0.2  c-17.2-11.9-36.5-22.3-57.3-30.9c-64-26.4-127.8-29.4-153.5-29.4c-0.4,0-0.9,0-1.3,0c-8.8,0-16,11.9-23.1,23.4  c-4.2,6.9-8.6,14-13.2,18.3c0.6-0.5,1.1-0.9,1.7-1.4c0.9-0.7,1.8-1.4,2.8-2.1c3.3-4.1,6.5-9.3,9.6-14.4c6.9-11.2,14-22.8,22.2-22.9  c22.9-0.1,79.9,2.2,139.6,23.6c25.8,8.3,50.5,20.6,73.7,36.8c0,0,0.1,0.1,0.1,0.1c0.6-0.1,1.2-0.4,1.7-0.9c0.5-0.6,0.7-1.4,0.6-2.1  c-0.1-0.7-0.5-1.4-1.1-1.9c-17.6-12.1-37.1-22.7-58.2-31.4c-63.5-26.2-125.9-29.9-157.5-29.7c-10.1,0-17.9,12.6-25.5,24.7  c-4.2,6.8-8.6,13.8-13.1,18c-0.6,0.5-0.9,1.3-0.9,2.1c0,0.8,0.3,1.6,0.9,2.1c0,0,0,0,0.1,0l-0.2,0.1l1,0.4c0.2,0.1,0.4,0.1,0.6,0.2  C156.6,159.3,157.1,158.9,157.6,158.5z"/>
<path d="M151.7,165c13.9-13,31.9-23.3,47-28.2c8.4-2.7,39.3-11.2,85.4-5.6c44,5.3,85.3,21.3,122.9,47.6c2.1,1.5,2.7,4.4,1.4,6.6  l-0.1,0.2c-1.3,1.9-3.9,2.6-6.1,1.7c-19.8-8.6-42.6-1.6-54.2,16.8c-2,3.1-4,6.4-6.1,9.8c-21.7,34.7-51.3,82.2-80,97.3  c-15.5,8.1-39.8,12.3-60,8.2l0,0.1c0.1,0.3,0.1,0.6,0,0.9c5.4,1.1,11,1.6,16.7,1.6c15.9,0,32.2-3.9,43.7-9.9  c28.9-15.2,58.7-62.9,80.4-97.7c2.1-3.4,4.2-6.7,6.1-9.8c11.3-17.9,33.5-24.8,52.9-16.4c2.8,1.2,6,0.3,7.5-2.3l0.2-0.3l0,0  c1.3-2.6,0.6-5.8-1.7-7.5c0,0-0.1-0.1-0.1-0.1c-23.2-16.2-47.9-28.5-73.7-36.8c-16.1-5.2-32.7-8.8-49.7-10.9  c-46.3-5.6-77.4,2.9-85.9,5.6c-12,3.9-24.6,10.6-35.9,18.9c-0.9,0.7-1.9,1.4-2.8,2.1c-0.6,0.4-1.1,0.9-1.7,1.4  c-0.1,0.1-0.3,0.2-0.4,0.3c-0.5,0.4-1,0.8-1.5,1.2c-1.6,1.4-3.2,2.8-4.7,4.2L151.7,165z"/>
<path d="M155.9,303L155.9,303c1,3.2,3.6,5.7,6.8,6.6l34.4,9.8l-49.9-153.7l-22,28.2c-2.1,2.7-2.7,6.2-1.7,9.4L155.9,303z   M196.7,318.2l-33.7-9.6c-2.9-0.8-5.2-3.1-6.2-6L124.5,203c-0.9-2.9-0.4-6.1,1.5-8.5l21.6-27.6L196.7,318.2z"/>
<path d="M197.1,319.4l0.5,1.4c0.1,0.5,0.5,0.8,0.9,1c0.3,0.1,0.5,0.2,0.8,0.2c0.2,0,0.4,0,0.6-0.1l0.9-0.3c0.6-0.2,1.1-0.7,1.2-1.3  c0.1-0.3,0.1-0.6,0-0.9l0-0.1L151.7,165l-0.4-1.1l-0.3-1c-0.1-0.5-0.5-0.8-0.9-1c-0.4-0.2-0.9-0.3-1.4-0.1l-0.9,0.3  c-0.9,0.3-1.5,1.3-1.1,2.3l0.5,1.4L197.1,319.4z M148.2,163l0.9-0.3c0.1,0,0.2,0,0.2,0c0.1,0,0.2,0,0.4,0.1c0.2,0.1,0.3,0.3,0.4,0.5  L201,319.7v0c0.1,0.4-0.1,0.9-0.5,1l-0.9,0.3c-0.2,0.1-0.4,0-0.6,0c-0.2-0.1-0.3-0.3-0.4-0.5L147.7,164  C147.5,163.6,147.8,163.1,148.2,163z"/>
<polygon points="180.6,82.2 178.5,88 182.7,88 "/>
<path d="M166.5,87.8c0,7.6,6.2,13.8,13.8,13.8c7.6,0,13.8-6.2,13.8-13.8S187.8,74,180.2,74C172.6,74,166.5,80.2,166.5,87.8z   M179.3,80h2.7l5.2,14H185l-1.5-4.1h-5.7l-1.5,4.1h-2.2L179.3,80z"/>
<path d="M441.3,167.8c0-1.4-0.9-2.2-2.5-2.2h-3.5v4.5h3.5C440.4,170.1,441.3,169.2,441.3,167.8z"/>
<path d="M440.6,161.8c0-1.2-0.7-1.9-2.2-1.9h-3.1v3.9h3.1C439.9,163.8,440.6,163,440.6,161.8z"/>
<path d="M451.6,165.8c0-7.6-6.2-13.8-13.8-13.8c-7.6,0-13.8,6.2-13.8,13.8c0,7.6,6.2,13.8,13.8,13.8  C445.4,179.6,451.6,173.4,451.6,165.8z M433.2,158h5.2c2.6,0,4.3,1.4,4.3,3.7c0,1.3-0.5,2.3-1.5,2.8c1.3,0.5,2.2,1.5,2.2,3.3  c0,2.7-2,4.1-4.6,4.1h-5.6V158z"/>
<path d="M487.5,621c-3.9-3.6-8.8-5.5-13.7-5.6v17.4c5.2,0.1,10.4,2.1,14.4,5.8c3.8,3.5,9.9,3.5,13.9-0.2c1.6-1.5,3.5-2.7,5.4-3.6  c3.2-5.6,5-12.2,5.1-19.1c-3.7,0.8-7.1,2.5-9.8,5C498.4,624.8,491.7,624.9,487.5,621z"/>
<path d="M443.7,580.5c-2.8-2.5-6.2-4.3-9.8-5v19.2c3.9,0.8,7.5,2.6,10.5,5.3c4,3.6,10.1,3.7,13.9,0.2c4.1-3.8,9.2-5.7,14.4-5.8V578  c-1.6,0-3.2-0.1-4.8-0.4l-3.7-0.6c-1.9,0.9-3.7,2.1-5.3,3.6C454.8,584.6,448.1,584.5,443.7,580.5z"/>
<path d="M444.4,579.8c4,3.6,10.1,3.7,13.9,0.2c1.3-1.2,2.8-2.3,4.3-3.1l-3.3-0.5c-11.3-1.7-20.8-9-25.4-19.3v17.4  C437.8,575.2,441.5,577.1,444.4,579.8z"/>
<path d="M487.5,600.8c-3.9-3.6-8.8-5.5-13.8-5.6v19.2c5.2,0.1,10.4,2.1,14.4,5.8c3.8,3.5,9.9,3.5,13.9-0.2c3-2.7,6.6-4.5,10.5-5.3  v-19.1c-3.7,0.8-7.1,2.5-9.8,5C498.4,604.7,491.7,604.8,487.5,600.8z"/>
<path d="M488.2,600.1c3.8,3.6,9.9,3.5,13.9-0.2c2.9-2.7,6.6-4.5,10.5-5.3v-19.2c-3.7,0.8-7.1,2.5-9.8,5c-2.2,2-5,3-7.8,3  c-2.7,0-5.4-1-7.5-2.9c-1.7-1.5-3.5-2.8-5.5-3.7l-4.2,0.6c-1.4,0.2-2.7,0.3-4.1,0.3v16.3C479,594.4,484.1,596.3,488.2,600.1z"/>
<path d="M444.4,638.5c4,3.6,10.1,3.7,13.9,0.2c4.1-3.8,9.2-5.7,14.5-5.8v-17.4c-5,0.1-9.9,2-13.8,5.6c-2.1,1.9-4.7,2.9-7.4,2.9  c-2.8,0-5.6-1-7.8-3c-2.8-2.5-6.1-4.2-9.8-5c0,7,2,13.7,5.3,19.4l0.1-0.2C441.1,635.9,442.8,637.1,444.4,638.5z"/>
<path d="M458.3,620.3c4.1-3.8,9.2-5.7,14.5-5.8v-19.2c-5,0.1-9.9,2-13.8,5.6c-2.1,1.9-4.8,2.9-7.5,2.9c-2.8,0-5.6-1-7.8-3  c-2.8-2.5-6.2-4.3-9.8-5v19.1c3.9,0.8,7.5,2.6,10.5,5.3C448.4,623.7,454.5,623.8,458.3,620.3z"/>
<path d="M495,642.3c-2.7,0-5.4-1-7.5-2.9c-3.9-3.6-8.8-5.5-13.7-5.6V655c13.8-0.2,25.9-7.5,32.8-18.4c-1.3,0.8-2.6,1.7-3.8,2.7  C500.6,641.3,497.7,642.3,495,642.3z"/>
<path d="M459,639.4c-4.2,3.9-10.9,3.8-15.3-0.2c-1.2-1.1-2.4-2-3.7-2.7c6.9,10.9,19,18.2,32.8,18.4v-21.1  C467.8,634,462.9,635.8,459,639.4z"/>
<path d="M502.1,579.8c2.9-2.7,6.6-4.5,10.5-5.3v-19.1c0,0,0,0,0,0c-4.3,11.2-14.2,19.2-26.1,21l-2.7,0.4c1.6,0.9,3.1,1.9,4.4,3.2  C492,583.5,498.1,583.4,502.1,579.8z"/>
<path d="M587.8,477.8v-54.9c-4.6,0.2-9.8,0.4-15.3,0.5v49.5C577.9,473.6,583.1,475.3,587.8,477.8z"/>
<path d="M566.1,472.4c1.8,0,3.6,0.1,5.4,0.3v-49.3c-4.6,0.1-9.4,0.3-14.3,0.4l-19.8,58.5C545.3,476.1,555.3,472.4,566.1,472.4z"/>
<path d="M518,215.9c13.9,2.2,30.7,6,44.5,12.2l-1.1-25h-0.2c-0.1,0-0.1,0-0.2,0H384.7c-0.1,0-0.1,0-0.2,0h-0.2l-1.1,25  c13.8-6.2,30.6-10,44.5-12.2c23.9-3.8,44.9-4.2,45.1-4.2l0,0.5l0-0.5C473.1,211.7,494.1,212,518,215.9z"/>
<path d="M364.4,484.8h44.9l-20.7-61c-15.4-0.4-29.5-0.9-39-1.3V470C349.6,478.2,356.3,484.8,364.4,484.8z"/>
<path d="M473.4,577c1.4,0,2.9-0.1,4.3-0.3l8.6-1.3c12-1.8,21.9-10.1,25.8-21.6l8.4-24.9c-0.7-3.2-1.1-6.5-1.1-9.9  c0-14.2,6.4-26.9,16.4-35.5l20.2-59.7c-35.8,1-77.8,1.8-82.7,1.9V577z"/>
<path d="M433.7,553.8c3.9,11.5,13.8,19.8,25.8,21.6l8.6,1.3c1.4,0.2,2.8,0.3,4.3,0.3V425.7c-5.1-0.1-47-0.9-82.7-1.9L433.7,553.8z"/>
<path d="M611.7,519c0-25.2-20.5-45.6-45.6-45.6s-45.6,20.5-45.6,45.6s20.5,45.6,45.6,45.6S611.7,544.2,611.7,519z M566.1,550.6  c-17.4,0-31.6-14.2-31.6-31.6s14.2-31.6,31.6-31.6s31.6,14.2,31.6,31.6S583.5,550.6,566.1,550.6z"/>
<path d="M472.9,399.8c-122.7,0-145.1-4.4-149-5.6c-0.1,4.1-0.1,25.3,16.5,26.8c18.8,1.7,131.4,3.8,132.5,3.8  c1.1,0,113.8-2.1,132.5-3.8c16.6-1.5,16.6-22.7,16.5-26.8C618.1,395.4,596,399.8,472.9,399.8L472.9,399.8z"/>
<path d="M380.3,389.7l-16.1-0.3c-3.2-0.1-6.2-1.6-8.2-4.2c-2-2.6-2.6-5.9-1.8-9l0.2-0.8l0,0c1.5-5.4,4.1-10.4,7.6-14.8l3.6-4.5  c2.5-3.2,6.2-5,10.1-5.2L363.1,243c-19.9,15.2-32.7,37.9-35.4,62.6c-2.5,23.2-3.8,52.7-3.8,87.5c1.2,0.5,9.6,3,57.3,4.5L380.3,389.7  z"/>
<path d="M472.4,380.4h-20.2c-18.6,0-34.7-12.7-39.1-30.8l-4-16.4c-0.9-3.6-0.3-7.3,1.7-10.4c2-3.1,5.1-5.2,8.7-5.9l11.7-2.3  c13.7-2.7,27.5-4.1,41.3-4.2v-97.6c-6.9,0.2-83.8,2.6-108.4,29.5L376.7,351c2,0,4.1,0.5,6,1.4l6.6,3.3c8.1,4.1,15.1,10.3,20.1,17.9  l0.1,0.2c2.2,3.3,2.3,7.4,0.4,10.8c-1.9,3.4-5.3,5.4-9.2,5.4c-0.1,0-0.1,0-0.2,0l-19.4-0.4l0.9,7.9c21.4,0.7,50.5,1.1,90.2,1.1  V380.4z"/>
<path d="M580.2,356.2l3.6,4.5c3.5,4.4,6.1,9.3,7.6,14.8l0,0l0.2,0.9c0.8,3.1,0.2,6.4-1.8,9c-2,2.6-4.9,4.1-8.2,4.2l-15.3,0.3  l-0.9,7.9c46.7-1.5,55.1-4,56.5-4.5c0-34.9-1.3-64.3-3.8-87.6c-2.7-24.7-15.6-47.5-35.5-62.6l-12,108.1  C574.3,351.4,577.8,353.2,580.2,356.2z"/>
<path d="M473.4,310.3c13.9,0,27.9,1.4,41.7,4.2l11.2,2.2c3.7,0.7,6.8,2.9,8.8,6.1c2,3.2,2.5,7,1.5,10.6l-4.8,17.3  c-4.8,17.2-20.5,29.3-38.3,29.5v0l-0.5,0h-19.6v18.4c40.2,0,69.6-0.5,91-1.2l0.9-7.9l-20.1,0.4c-0.1,0-0.1,0-0.2,0  c-3.9,0-7.3-2-9.2-5.4c-1.9-3.5-1.8-7.5,0.4-10.8l0.1-0.2c5-7.6,12-13.8,20.1-17.9l6.6-3.3c2.1-1,4.3-1.5,6.6-1.4l12.1-108.9  c-24.8-26.8-101.4-29.3-108.3-29.5V310.3z"/>
<path d="M596.7,519c0-16.9-13.7-30.6-30.6-30.6s-30.6,13.7-30.6,30.6s13.7,30.6,30.6,30.6S596.7,535.9,596.7,519z M566.1,525.4  c-3.5,0-6.4-2.9-6.4-6.4s2.9-6.4,6.4-6.4s6.4,2.9,6.4,6.4S569.6,525.4,566.1,525.4z"/>
<ellipse cx="566.1" cy="519" rx="5.4" ry="5.4"/>
<path d="M452.2,379.4l40.8,0c17.6,0,33.1-11.8,37.8-28.8l4.8-17.3c0.9-3.4,0.4-6.8-1.4-9.8c-1.8-3-4.7-5-8.1-5.7l-11.2-2.2  c-13.9-2.8-27.9-4.2-41.8-4.2c-14,0-27.9,1.4-41.8,4.2l-11.7,2.3c-3.3,0.7-6.2,2.6-8,5.5c-1.8,2.9-2.4,6.3-1.6,9.6l4,16.4  C418.3,367,434,379.4,452.2,379.4z"/>
<path d="M381.4,198.8c0,1.8,1.5,3.3,3.3,3.3h176.4c1.8,0,3.3-1.5,3.3-3.3c0-1.8-1.5-3.3-3.3-3.3H384.7  C382.9,195.5,381.4,197,381.4,198.8z"/>
<path d="M389,356.7l-6.6-3.3c-5.4-2.7-12.1-1.2-15.9,3.5l-3.6,4.5c-3.6,4.5-6.2,9.6-7.6,15.2l-0.2,0.6c-0.5,2.6,0.1,5.4,1.8,7.5  c1.8,2.3,4.5,3.7,7.4,3.8l36.5,0.7c3.6,0.1,6.8-1.8,8.5-4.9c1.7-3.1,1.6-6.8-0.4-9.8l-0.1-0.2C403.8,366.7,397,360.7,389,356.7z"/>
<path d="M581.6,388.4c2.9-0.1,5.6-1.4,7.4-3.8c1.7-2.2,2.3-5,1.7-7.7l-0.1-0.4c-1.5-5.6-4-10.7-7.6-15.2l-3.6-4.5  c-2.5-3.1-6.3-4.8-10.1-4.8c-2,0-3.9,0.4-5.8,1.4l-6.6,3.3c-8,4-14.8,10.1-19.7,17.5l-0.1,0.2c-2,3-2.1,6.7-0.4,9.8  c1.7,3.1,4.9,5,8.5,4.9L581.6,388.4z"/>
<script xmlns=""/></svg>